<svg version="1" xmlns="http://www.w3.org/2000/svg" width="682.667" height="682.667" viewBox="0 0 512.000000 512.000000"><path d="M42 2c-8.1 1.2-12.7 3-18.9 7.1C12 16.5 4.8 27.7 3 40.2c-1.3 8.4-1.3 423.2 0 431.6C5.7 491 22 507.3 41.2 510c8.4 1.3 421.2 1.3 429.6 0 7.6-1 17.2-5.4 22.9-10.4 5.5-4.8 11.7-14.3 14-21.4 1.7-5.4 1.8-15.8 1.8-222.7v-217l-2.1-5.7c-5.1-13.3-15.9-24.1-29.2-29.2l-5.7-2.1-213-.1C142.3 1.3 44.5 1.6 42 2zm430.5 26.1c2.5 1.2 5.7 3.5 7 5.1 5.9 7 5.5-8.7 5.5 223 0 190.2-.2 213.3-1.6 216.6-2 4.9-6 9-10.9 11.3-3.9 1.8-11.8 1.9-216.3 1.9-189.7 0-212.7-.2-216-1.6-4.9-2-9-6-11.3-10.9-1.8-3.9-1.9-11.8-1.9-217.3 0-190.6.2-213.7 1.6-217 2-4.9 6-9 10.9-11.3 3.9-1.8 11.8-1.9 216.3-1.9H468l4.5 2.1z"/><path d="M127.9 70.9l-2.9 2.9V242H53v17h83.2l2.9-2.9 2.9-2.9V85h89v228.2l2.9 2.9 2.9 2.9h100.4l2.9-2.9 2.9-2.9V257h123v-17H331.8l-2.9 2.9-2.9 2.9V302h-78V73.8l-2.9-2.9-2.9-2.9H130.8l-2.9 2.9zM99 315.6c-49.1 9.7-79.4 56.5-67.9 104.9 5.9 24.6 25.7 47.5 49.7 57.4 40.9 16.9 88.5-.6 108.2-39.8 7.2-14.4 8.5-20.4 8.5-39.1-.1-15.3-.3-17.1-2.9-25-5.1-15.3-11.8-26.2-22.2-36.1-10.3-9.7-19.1-14.8-33.4-19.4-7.4-2.4-10.4-2.8-23-3.1-8-.1-15.6 0-17 .2zm30 24.6c12.6 3.1 26.2 12.1 33.4 22.1 8.7 12.1 12.1 22.9 12 37.7-.1 16.5-6 30.6-17.9 42.5-24.1 24.1-61.9 24.2-85.9.2-12.3-12.3-17.8-25.7-18-43.2-.1-16.9 5.7-30.8 17.9-43C86 341.1 107.7 335 129 340.2zM384 315.6c-60.4 11.9-89.7 79.2-56.6 130.4 17 26.2 48.6 41.3 79.6 37.9 34.8-3.8 62.4-26.8 73.1-60.9 2.1-6.7 2.4-9.3 2.4-24-.1-15.3-.3-17.1-2.9-25-5.1-15.3-11.8-26.2-22.2-36.1-10.3-9.7-19.1-14.8-33.4-19.4-7.4-2.4-10.4-2.8-23-3.1-8-.1-15.6 0-17 .2zm30 24.6c12.6 3.1 26.2 12.1 33.4 22.1 8.7 12.1 12.1 22.9 12 37.7-.1 16.5-6 30.6-17.9 42.5-24.1 24.1-61.9 24.2-85.9.2-12.3-12.3-17.8-25.7-18-43.2-.1-16.9 5.7-30.8 17.9-43 15.5-15.4 37.2-21.5 58.5-16.3z"/></svg>